<?xml version="1.0" encoding="UTF-8" standalone="no"?>
<!-- Created with Inkscape (http://www.inkscape.org/) -->

<svg
   width="287.4299mm"
   height="148.16434mm"
   viewBox="0 0 1086.3492 559.9912"
   version="1.1"
   id="svg5"
   inkscape:version="1.2.1 (9c6d41e410, 2022-07-14)"
   sodipodi:docname="int_curve.svg"
   xmlns:inkscape="http://www.inkscape.org/namespaces/inkscape"
   xmlns:sodipodi="http://sodipodi.sourceforge.net/DTD/sodipodi-0.dtd"
   xmlns="http://www.w3.org/2000/svg"
   xmlns:svg="http://www.w3.org/2000/svg">
  <sodipodi:namedview
     id="namedview7"
     pagecolor="#ffffff"
     bordercolor="#999999"
     borderopacity="1"
     inkscape:showpageshadow="0"
     inkscape:pageopacity="0"
     inkscape:pagecheckerboard="0"
     inkscape:deskcolor="#d1d1d1"
     inkscape:document-units="mm"
     showgrid="false"
     inkscape:zoom="1.1893044"
     inkscape:cx="443.53657"
     inkscape:cy="319.93491"
     inkscape:window-width="2560"
     inkscape:window-height="1377"
     inkscape:window-x="1912"
     inkscape:window-y="-8"
     inkscape:window-maximized="1"
     inkscape:current-layer="layer1" />
  <defs
     id="defs2">
    <clipPath
       clipPathUnits="userSpaceOnUse"
       id="clipEmfPath1">
      <path
         d="M -7.8395928,4.4797673 H 1287.1331 V 711.00307 H -7.8395928 Z"
         id="path132" />
    </clipPath>
    <clipPath
       clipPathUnits="userSpaceOnUse"
       id="clipEmfPath2">
      <path
         d="M 692.92401,169.75118 H 1179.2987 V 672.44507 H 692.92401 Z"
         id="path135" />
    </clipPath>
    <pattern
       id="EMFhbasepattern"
       patternUnits="userSpaceOnUse"
       width="6"
       height="6"
       x="0"
       y="0" />
    <marker
       style="overflow:visible"
       id="TriangleStart"
       refX="0"
       refY="0"
       orient="auto-start-reverse"
       inkscape:stockid="TriangleStart"
       markerWidth="5.3244081"
       markerHeight="6.155385"
       viewBox="0 0 5.3244081 6.1553851"
       inkscape:isstock="true"
       inkscape:collect="always"
       preserveAspectRatio="xMidYMid">
      <path
         transform="scale(0.5)"
         style="fill:context-stroke;fill-rule:evenodd;stroke:context-stroke;stroke-width:1pt"
         d="M 5.77,0 -2.88,5 V -5 Z"
         id="path135-5" />
    </marker>
    <marker
       style="overflow:visible"
       id="Dot"
       refX="0"
       refY="0"
       orient="auto"
       inkscape:stockid="Dot"
       markerWidth="5.6666665"
       markerHeight="5.6666665"
       viewBox="0 0 5.6666667 5.6666667"
       inkscape:isstock="true"
       inkscape:collect="always"
       preserveAspectRatio="xMidYMid">
      <path
         transform="scale(0.5)"
         style="fill:context-stroke;fill-rule:evenodd;stroke:context-stroke;stroke-width:1pt"
         d="M 5,0 C 5,2.76 2.76,5 0,5 -2.76,5 -5,2.76 -5,0 c 0,-2.76 2.3,-5 5,-5 2.76,0 5,2.24 5,5 z"
         id="Dot1"
         sodipodi:nodetypes="sssss" />
    </marker>
    <marker
       style="overflow:visible"
       id="marker16264"
       refX="0"
       refY="0"
       orient="auto"
       inkscape:stockid="Dot"
       markerWidth="5.6666665"
       markerHeight="5.6666665"
       viewBox="0 0 5.6666667 5.6666667"
       inkscape:isstock="true"
       inkscape:collect="always"
       preserveAspectRatio="xMidYMid">
      <path
         transform="scale(0.5)"
         style="fill:context-stroke;fill-rule:evenodd;stroke:context-stroke;stroke-width:1pt"
         d="M 5,0 C 5,2.76 2.76,5 0,5 -2.76,5 -5,2.76 -5,0 c 0,-2.76 2.3,-5 5,-5 2.76,0 5,2.24 5,5 z"
         id="path16262"
         sodipodi:nodetypes="sssss" />
    </marker>
  </defs>
  <g
     inkscape:label="Layer 1"
     inkscape:groupmode="layer"
     id="layer1"
     transform="translate(114.06947,-376.21576)">
    <g
       id="g2227">
      <rect
         style="fill:#ffffff;stroke-width:4.7811;stroke-linecap:round"
         id="rect2044"
         width="1086.3492"
         height="559.99121"
         x="-114.06947"
         y="376.21576" />
      <g
         id="g2022">
        <path
           style="fill:#000000;fill-opacity:1;fill-rule:evenodd;stroke:none"
           d="m -14.970459,528.37416 h 14.05926956 l -0.37997996,1.71991 c -0.89996,0.17999 -1.51992,0.39998 -1.9199,0.63996 -0.37998,0.21999 -0.71996,0.57997 -1.03995,1.03995 -0.29998,0.47997 -0.61997,1.19994 -0.93995,2.19988 -0.33998,0.99995 -0.73996,2.61987 -1.23994,4.87975 l -5.9996796,27.27858 c -0.29999,1.37993 -0.49998,2.47988 -0.59997,3.27983 -0.1,0.79996 -0.14,1.53992 -0.14,2.19989 0,1.05994 0.25999,1.79991 0.77996,2.23988 0.53998,0.41998 1.41993,0.67997 2.6598696,0.77996 l -0.3799796,1.71991 h -14.05927 l 0.37998,-1.71991 c 0.89995,-0.13999 1.55992,-0.35998 1.99989,-0.67996 0.43998,-0.31998 0.81996,-0.75996 1.11994,-1.31993 0.31999,-0.55997 0.59997,-1.23994 0.85996,-2.0599 0.25999,-0.79995 0.63997,-2.37987 1.15994,-4.69975 l 5.95969,-27.0586 c 0.51997,-2.33988 0.77996,-4.23978 0.77996,-5.6597 0,-1.09995 -0.27999,-1.8799 -0.81996,-2.29988 -0.55997,-0.43998 -1.41992,-0.69997 -2.61986,-0.75996 z"
           id="path157" />
        <path
           style="fill:#000000;fill-opacity:1;fill-rule:evenodd;stroke:none"
           d="m 31.007151,525.5543 0.95995,2.71986 c -5.47971,1.79991 -9.5395,5.31972 -12.17937,10.55945 -2.63986,5.23973 -3.95979,11.81939 -3.95979,19.73898 0,8.19957 1.31993,14.95922 3.95979,20.27894 2.63987,5.31973 6.65966,8.87954 12.07938,10.67945 l -0.85996,2.71986 c -6.85964,-1.79991 -12.11937,-5.69971 -15.77918,-11.6594 -3.65981,-5.95969 -5.4797204,-13.17931 -5.4797204,-21.67887 0,-8.45956 1.8399104,-15.67919 5.4997204,-21.65888 3.65981,-5.99968 8.91954,-9.89948 15.75918,-11.69939 z"
           id="path159" />
        <path
           style="fill:#000000;fill-opacity:1;fill-rule:evenodd;stroke:none"
           d="m 47.226311,542.15344 c 0.71996,0 1.35993,0.08 1.9199,0.23999 0.53997,0.15999 1.01995,0.41998 1.45992,0.75996 0.41998,0.33998 0.77996,0.77996 1.11994,1.31993 0.31999,0.53997 0.63997,1.25993 0.93996,2.19989 0.31998,0.91995 0.59996,2.05989 0.85995,3.43982 0.27999,1.37992 0.51997,2.79985 0.71996,4.27977 h 0.35998 c 2.23989,-3.17983 3.9598,-5.47971 5.11974,-6.95963 1.15994,-1.45993 2.13989,-2.53987 2.91985,-3.25983 0.79996,-0.71997 1.57992,-1.21994 2.31988,-1.51993 0.73996,-0.27998 1.69991,-0.43997 2.91984,-0.43997 1.09995,0 2.0199,0.13999 2.71987,0.41998 l -1.41993,6.37966 h -2.45987 c -0.14,-0.99994 -0.53998,-1.47992 -1.21994,-1.47992 -0.21999,0 -0.43998,0.04 -0.67997,0.1 -0.21998,0.08 -0.51997,0.21998 -0.85995,0.45997 -0.33998,0.23999 -0.81996,0.69997 -1.47992,1.37993 -0.65997,0.65997 -1.39993,1.49992 -2.21989,2.47987 -0.81996,0.99995 -1.65991,2.0199 -2.53987,3.09984 l -2.37987,2.97985 c 0.41997,2.25988 0.81995,4.19978 1.19993,5.83969 0.35999,1.63992 0.69997,3.01985 0.99995,4.09979 0.27999,1.07994 0.53997,1.9599 0.75996,2.57986 0.23999,0.63997 0.47998,1.11995 0.71997,1.41993 0.25998,0.31998 0.53997,0.53997 0.79995,0.67997 0.25999,0.11999 0.57997,0.17999 0.93995,0.17999 0.61997,0 1.23994,-0.23999 1.83991,-0.71997 0.59997,-0.49997 1.45992,-1.61991 2.57987,-3.33982 l 2.27988,1.49992 c -1.63992,2.43987 -3.11984,4.15978 -4.43977,5.15973 -1.31993,0.97995 -2.89985,1.47992 -4.71976,1.47992 -1.01994,0 -1.8799,-0.17999 -2.57986,-0.53997 -0.69997,-0.35998 -1.29994,-0.93995 -1.81991,-1.73991 -0.51997,-0.79996 -0.97995,-2.03989 -1.37993,-3.7198 -0.71996,-2.99985 -1.15994,-5.29973 -1.33993,-6.89965 h -0.33998 c -2.47987,3.49982 -4.33977,5.99969 -5.53971,7.51961 -1.19994,1.53992 -2.19989,2.65987 -2.97985,3.37983 -0.79996,0.71996 -1.55992,1.23993 -2.29988,1.53992 -0.73996,0.27998 -1.71991,0.43998 -2.91985,0.43998 -1.11994,0 -2.01989,-0.14 -2.71986,-0.41998 l 1.41993,-6.37967 h 2.45987 c 0.14,0.99995 0.53998,1.47992 1.21994,1.47992 0.31998,0 0.67996,-0.08 1.03995,-0.25998 0.35998,-0.18 0.87995,-0.59997 1.55991,-1.25994 0.67997,-0.67996 1.61992,-1.71991 2.81986,-3.15983 1.19994,-1.41993 2.91985,-3.55982 5.19973,-6.41967 -0.35998,-1.8599 -0.71996,-3.63981 -1.09994,-5.33972 -0.35999,-1.71991 -0.75997,-3.31983 -1.15994,-4.79975 -0.37998,-1.45993 -0.71997,-2.43988 -0.97995,-2.89985 -0.25999,-0.43998 -0.51998,-0.75996 -0.81996,-0.93996 -0.29999,-0.17999 -0.65997,-0.25998 -1.09994,-0.25998 -0.49998,0 -0.93995,0.1 -1.33993,0.31998 -0.39998,0.23999 -0.83996,0.61997 -1.29994,1.17994 -0.47997,0.53997 -1.09994,1.39993 -1.8599,2.57987 l -2.29988,-1.51992 c 1.47992,-2.21989 2.89985,-3.8798 4.25978,-4.97975 1.35993,-1.11994 2.95984,-1.65991 4.81975,-1.65991 z"
           id="path161" />
        <path
           style="fill:#000000;fill-opacity:1;fill-rule:evenodd;stroke:none"
           d="m 76.104821,525.5543 c 6.83964,1.79991 12.09937,5.69971 15.75918,11.69939 3.67981,5.97969 5.49971,13.19932 5.49971,21.65888 0,8.49956 -1.8199,15.71918 -5.47971,21.67887 -3.65981,5.95969 -8.91954,9.85949 -15.77918,11.6594 l -0.83996,-2.71986 c 5.39972,-1.79991 9.43951,-5.35972 12.05938,-10.67945 2.63986,-5.31972 3.95979,-12.07937 3.95979,-20.27894 0,-7.91959 -1.31993,-14.49925 -3.9398,-19.73898 -2.61986,-5.23973 -6.67965,-8.75954 -12.19936,-10.55945 z"
           id="path163" />
        <path
           style="fill:#000000;fill-opacity:1;fill-rule:evenodd;stroke:none"
           d="m 128.80208,560.74247 h 43.31775 v 4.67976 h -43.31775 z m 0,-14.58924 h 43.31775 v 4.67976 h -43.31775 z"
           id="path165" />
        <path
           style="fill:#000000;fill-opacity:1;fill-rule:evenodd;stroke:none"
           d="m 208.69793,528.37416 h 14.05927 l -0.37998,1.71991 c -0.89995,0.17999 -1.51992,0.39998 -1.9199,0.63996 -0.37998,0.21999 -0.71996,0.57997 -1.03995,1.03995 -0.29998,0.47997 -0.61996,1.19994 -0.93995,2.19988 -0.33998,0.99995 -0.73996,2.61987 -1.23993,4.87975 l -5.99969,27.27858 c -0.29999,1.37993 -0.49997,2.47988 -0.59997,3.27983 -0.1,0.79996 -0.13999,1.53992 -0.13999,2.19989 0,1.05994 0.25998,1.79991 0.77996,2.23988 0.53997,0.41998 1.41992,0.67997 2.65986,0.77996 l -0.37998,1.71991 h -14.05927 l 0.37998,-1.71991 c 0.89995,-0.13999 1.55992,-0.35998 1.9999,-0.67996 0.43997,-0.31998 0.81995,-0.75996 1.11994,-1.31993 0.31998,-0.55997 0.59997,-1.23994 0.85995,-2.0599 0.25999,-0.79995 0.63997,-2.37987 1.15994,-4.69975 l 5.95969,-27.0586 c 0.51998,-2.33988 0.77996,-4.23978 0.77996,-5.6597 0,-1.09995 -0.27998,-1.8799 -0.81996,-2.29988 -0.55997,-0.43998 -1.41992,-0.69997 -2.61986,-0.75996 z"
           id="path167" />
        <path
           style="fill:#000000;fill-opacity:1;fill-rule:evenodd;stroke:none"
           d="m 235.93652,560.2925 c -1.19994,0 -2.21989,0.29998 -3.01985,0.93995 -0.79996,0.61997 -1.43992,1.53992 -1.9199,2.73986 -0.45997,1.19993 -0.79996,2.67986 -0.99995,4.41977 -0.19998,1.73991 -0.27998,3.7198 -0.27998,5.91969 0,2.55987 0.11999,4.75975 0.35998,6.61966 0.25999,1.8599 0.63997,3.39982 1.15994,4.59976 0.51997,1.19993 1.17994,2.07989 1.9599,2.63986 0.79996,0.55997 1.73991,0.83996 2.83985,0.83996 1.01995,0 1.9199,-0.25999 2.69986,-0.77996 0.75996,-0.53998 1.39993,-1.35993 1.8999,-2.47987 0.51998,-1.13995 0.89996,-2.55987 1.15994,-4.27978 0.23999,-1.71991 0.37998,-3.75981 0.37998,-6.09969 0,-2.63986 -0.13999,-4.89974 -0.41998,-6.81964 -0.27998,-1.8999 -0.67996,-3.45982 -1.19993,-4.67976 -0.51998,-1.21993 -1.15994,-2.13989 -1.9399,-2.71986 -0.77996,-0.57997 -1.67992,-0.85995 -2.67986,-0.85995 z m 0.1,-2.49987 c 2.0399,0 3.7798,0.37998 5.21973,1.13994 1.45992,0.75996 2.63986,1.8599 3.55982,3.25983 0.89995,1.41993 1.57991,3.13984 1.99989,5.17973 0.43998,2.03989 0.65997,4.35977 0.65997,6.91964 0,5.6997 -1.01995,10.01948 -3.03985,12.93933 -2.01989,2.91985 -4.95974,4.37977 -8.79954,4.37977 -3.7998,0 -6.61965,-1.37993 -8.47956,-4.13978 -1.8399,-2.75986 -2.75985,-6.93964 -2.75985,-12.53935 0,-2.91985 0.27998,-5.45972 0.85995,-7.59961 0.55997,-2.13989 1.37993,-3.91979 2.39988,-5.33972 1.03994,-1.41993 2.27988,-2.45987 3.6998,-3.15984 1.41993,-0.69996 2.97985,-1.03994 4.67976,-1.03994 z"
           id="path169" />
        <path
           style="fill:#000000;fill-opacity:1;fill-rule:evenodd;stroke:none"
           d="m 276.7344,544.9333 c -2.37988,0 -4.65976,1.19993 -6.83965,3.57981 -2.19988,2.39988 -3.8798,5.61971 -5.03974,9.6995 3.29983,-0.02 6.13969,-0.31999 8.49956,-0.89996 2.35988,-0.55997 4.17979,-1.47992 5.43972,-2.73986 1.27993,-1.23993 1.8999,-2.93984 1.8999,-5.07973 0,-1.41993 -0.31998,-2.53987 -0.99995,-3.35983 -0.65996,-0.79996 -1.65991,-1.19993 -2.95984,-1.19993 z m 1.25993,-2.77986 c 2.83985,0 4.95974,0.57997 6.37967,1.71991 1.41993,1.13994 2.11989,2.93985 2.11989,5.37972 0,3.97979 -1.8599,6.97964 -5.59971,8.95954 -3.7398,1.99989 -9.27952,2.99984 -16.63913,2.99984 -0.27999,1.39993 -0.41998,2.91985 -0.41998,4.55976 0,2.45988 0.47997,4.25978 1.43992,5.35972 0.95995,1.11995 2.51987,1.67992 4.69976,1.67992 2.15989,0 4.11978,-0.47998 5.85969,-1.41993 1.73991,-0.91995 3.59982,-2.37988 5.53972,-4.31977 l 2.17988,2.27988 c -2.27988,2.51987 -4.57976,4.39977 -6.91964,5.6597 -2.31988,1.27994 -5.03974,1.8999 -8.13957,1.8999 -3.39983,0 -6.01969,-1.01994 -7.8796,-3.09983 -1.8599,-2.0799 -2.79985,-4.95975 -2.79985,-8.67955 0,-2.49987 0.45998,-5.17973 1.35993,-8.05958 0.89995,-2.85986 2.25988,-5.43972 4.09979,-7.7396 1.8199,-2.27988 3.99979,-4.03979 6.55966,-5.29973 2.55986,-1.25993 5.27972,-1.8799 8.15957,-1.8799 z"
           id="path171" />
        <path
           style="fill:#000000;fill-opacity:1;fill-rule:evenodd;stroke:none"
           d="m 297.8333,532.93392 v 3.93979 h 29.59846 v -3.93979 z"
           id="path173" />
        <path
           style="fill:#000000;fill-opacity:1;fill-rule:evenodd;stroke:none"
           d="m 341.67102,524.25437 h 4.97975 l -3.45982,15.05922 c -0.14,0.61997 -0.25999,1.15994 -0.33999,1.61991 -0.08,0.45998 -0.15999,0.87996 -0.21999,1.25994 -0.06,0.37998 -0.1,0.73996 -0.11999,1.05994 -0.04,0.33999 -0.04,0.67997 -0.04,1.01995 0,0.77996 0.19999,1.39993 0.61997,1.8599 0.39998,0.45998 1.01995,0.67997 1.8599,0.67997 0.93996,0 1.81991,-0.25999 2.67987,-0.77996 0.85995,-0.51997 1.63991,-1.17994 2.35987,-1.9999 0.69997,-0.81996 1.33993,-1.71991 1.8799,-2.69986 0.53998,-0.97995 0.97995,-1.9399 1.31994,-2.83985 0.41997,-1.11994 0.79995,-2.27988 1.13994,-3.45982 0.31998,-1.19994 0.63996,-2.37988 0.89995,-3.57981 0.27999,-1.19994 0.53997,-2.39988 0.79996,-3.61982 0.23999,-1.19993 0.49997,-2.39987 0.73996,-3.57981 h 5.03974 l -3.8798,16.77913 c -0.21999,0.91995 -0.37998,1.71991 -0.47997,2.39987 -0.1,0.67997 -0.16,1.23994 -0.16,1.69992 0,0.63996 0.12,1.11994 0.37998,1.39992 0.23999,0.29999 0.61997,0.43998 1.13994,0.43998 0.59997,0 1.21994,-0.21999 1.85991,-0.67997 0.63996,-0.45997 1.39993,-1.15993 2.25988,-2.11988 l 1.75991,1.67991 c -0.83996,0.81996 -1.59992,1.51992 -2.27988,2.09989 -0.67997,0.57997 -1.33993,1.05994 -1.9599,1.41992 -0.61997,0.37999 -1.21994,0.63997 -1.79991,0.79996 -0.59997,0.16 -1.21993,0.23999 -1.8799,0.23999 -1.25993,0 -2.23988,-0.37998 -2.91985,-1.15994 -0.67996,-0.77996 -1.01994,-1.8599 -1.01994,-3.25983 0,-0.35998 0.02,-0.71996 0.06,-1.07994 0.06,-0.37998 0.15999,-0.73996 0.29999,-1.11995 -0.06,-0.04 -0.12,-0.06 -0.16,-0.06 -0.06,0 -0.1,-0.02 -0.15999,-0.04 -0.79996,1.11994 -1.55992,2.09989 -2.29988,2.91985 -0.71996,0.81996 -1.45992,1.49992 -2.17988,2.01989 -0.73997,0.51998 -1.45993,0.89996 -2.21989,1.15994 -0.73996,0.23999 -1.51992,0.37998 -2.31988,0.37998 -0.69996,0 -1.35993,-0.11999 -1.9599,-0.35998 -0.59997,-0.21999 -1.19993,-0.61997 -1.8199,-1.19994 -0.17999,0.85996 -0.33998,1.87991 -0.45998,3.03985 -0.11999,1.15994 -0.19999,2.33988 -0.23999,3.51981 0,0.49998 0.02,1.03995 0.02,1.59992 0.02,0.57997 0.04,1.13994 0.1,1.69991 l -0.35998,1.73991 h -3.81981 c -0.23998,-0.25998 -0.51997,-0.51997 -0.77995,-0.79996 -0.25999,-0.27998 -0.51998,-0.55997 -0.77996,-0.83995 z m 35.53816,-0.53997 c 0.93995,0 1.71991,0.19999 2.31988,0.61997 0.59997,0.39997 1.09994,0.99994 1.47992,1.7999 0.39998,0.77996 0.71996,1.75991 0.97995,2.91985 0.25999,1.15994 0.53997,2.47987 0.81996,3.95979 h 0.33998 c 1.01995,-1.33993 1.9199,-2.51986 2.67986,-3.51981 0.73996,-0.97995 1.41993,-1.81991 1.9999,-2.51987 0.59997,-0.67997 1.13994,-1.23994 1.59991,-1.65992 0.47998,-0.43997 0.93996,-0.75996 1.37993,-0.99994 0.43998,-0.21999 0.89996,-0.37998 1.37993,-0.45998 0.45998,-0.1 0.99995,-0.13999 1.57992,-0.13999 0.85995,0 1.63991,0.15999 2.33988,0.45997 l -1.29994,5.05974 h -2.11989 c -0.06,-0.71996 -0.33998,-1.09994 -0.81995,-1.09994 -0.19999,0 -0.39998,0.04 -0.61997,0.1 -0.21999,0.08 -0.49997,0.21999 -0.79996,0.41998 -0.29998,0.19999 -0.65996,0.47998 -1.05994,0.85996 -0.41998,0.35998 -0.87996,0.83995 -1.43993,1.43992 -0.53997,0.57997 -1.15994,1.31993 -1.8799,2.15989 -0.69996,0.85995 -1.49992,1.8799 -2.39988,3.03984 0.45998,2.35988 0.85996,4.25978 1.17994,5.67971 0.33998,1.41992 0.65997,2.51987 0.97995,3.25983 0.29999,0.75996 0.59997,1.25993 0.91995,1.47992 0.29999,0.23999 0.65997,0.35998 1.05995,0.35998 0.27998,0 0.55997,-0.04 0.79996,-0.11999 0.23998,-0.06 0.49997,-0.19999 0.77996,-0.43998 0.25998,-0.23999 0.55997,-0.55997 0.87995,-0.99995 0.31998,-0.43997 0.69996,-1.01994 1.15994,-1.73991 l 1.9199,1.25994 c -0.75996,1.13994 -1.41993,2.05989 -1.9999,2.77985 -0.57997,0.71997 -1.13994,1.27994 -1.69991,1.69991 -0.53997,0.39998 -1.11994,0.67997 -1.69991,0.81996 -0.57997,0.15999 -1.23993,0.21999 -1.9999,0.21999 -0.65996,0 -1.23993,-0.08 -1.7399,-0.25999 -0.51998,-0.17999 -0.95995,-0.51997 -1.33994,-0.99994 -0.25998,-0.27999 -0.49997,-0.67997 -0.71996,-1.15994 -0.21999,-0.47998 -0.43997,-1.01995 -0.61997,-1.57992 -0.17999,-0.55997 -0.35998,-1.15994 -0.51997,-1.75991 -0.13999,-0.61997 -0.27998,-1.17994 -0.37998,-1.71991 -0.1,-0.51997 -0.17999,-0.99995 -0.23999,-1.41993 -0.06,-0.41997 -0.1,-0.73996 -0.11999,-0.93995 h -0.27999 c -1.03994,1.37993 -1.9199,2.55987 -2.67986,3.57982 -0.77996,1.01994 -1.45992,1.8999 -2.07989,2.63986 -0.61997,0.71996 -1.17994,1.31993 -1.65991,1.77991 -0.49998,0.47997 -0.99995,0.85995 -1.47993,1.11994 -0.47997,0.27998 -0.95995,0.47997 -1.47992,0.57997 -0.49997,0.1 -1.05994,0.13999 -1.67991,0.13999 -0.87996,0 -1.63992,-0.13999 -2.27988,-0.45998 l 1.17994,-4.99974 h 2.17988 c 0.06,0.73997 0.33999,1.11995 0.85996,1.11995 0.17999,-0.02 0.35998,-0.04 0.53997,-0.1 0.17999,-0.06 0.39998,-0.15999 0.63997,-0.31998 0.23998,-0.15999 0.53997,-0.41998 0.89995,-0.77996 0.37998,-0.33998 0.83996,-0.83996 1.39993,-1.45993 0.57997,-0.61996 1.25993,-1.39992 2.09989,-2.33987 0.81996,-0.95995 1.7999,-2.11989 2.93985,-3.49982 -0.29999,-1.43993 -0.57997,-2.69986 -0.79996,-3.75981 -0.23999,-1.05994 -0.43998,-1.97989 -0.63997,-2.73985 -0.19999,-0.75997 -0.39998,-1.37993 -0.57997,-1.85991 -0.19999,-0.47997 -0.37998,-0.85995 -0.57997,-1.13994 -0.19999,-0.27998 -0.41998,-0.47997 -0.63997,-0.59997 -0.23998,-0.11999 -0.49997,-0.19999 -0.81995,-0.21999 -0.27999,0 -0.55997,0.06 -0.79996,0.16 -0.25999,0.08 -0.49998,0.25998 -0.77996,0.49997 -0.25999,0.23999 -0.55997,0.55997 -0.85996,0.99995 -0.31998,0.41998 -0.69996,0.97995 -1.09994,1.65991 l -1.9799,-1.27993 c 0.69997,-1.03995 1.33993,-1.9199 1.8999,-2.63987 0.55998,-0.71996 1.11995,-1.29993 1.67992,-1.7399 0.53997,-0.41998 1.11994,-0.71997 1.71991,-0.91996 0.61997,-0.17999 1.31993,-0.27998 2.09989,-0.27998 z"
           id="path175" />
        <path
           style="fill:#000000;fill-opacity:1;fill-rule:evenodd;stroke:none"
           d="m -69.907605,677.16643 h 9.379513 l -0.259987,1.13994 c -0.599969,0.11999 -1.019947,0.25998 -1.279933,0.41998 -0.259987,0.15999 -0.479975,0.39998 -0.679965,0.69996 -0.19999,0.31998 -0.419978,0.79996 -0.639967,1.47992 -0.219988,0.65997 -0.499974,1.73991 -0.819957,3.23983 l -3.999792,18.17906 c -0.19999,0.91995 -0.339983,1.65991 -0.39998,2.19989 -0.06,0.53997 -0.09999,1.01994 -0.09999,1.45992 0,0.69996 0.17999,1.19994 0.519973,1.47992 0.359981,0.29999 0.95995,0.47998 1.779907,0.53998 l -0.259986,1.13994 h -9.379513 l 0.259986,-1.13994 c 0.599969,-0.1 1.039946,-0.23999 1.339931,-0.45998 0.299984,-0.21999 0.539972,-0.49997 0.739961,-0.87995 0.219989,-0.37998 0.399979,-0.83996 0.57997,-1.37993 0.159992,-0.51998 0.419978,-1.57992 0.759961,-3.11984 l 3.979793,-18.03906 c 0.359981,-1.55992 0.519973,-2.81986 0.519973,-3.77981 0,-0.73996 -0.179991,-1.23993 -0.539972,-1.53992 -0.37998,-0.27998 -0.95995,-0.45997 -1.759909,-0.49997 z"
           id="path177" />
        <path
           style="fill:#000000;fill-opacity:1;fill-rule:evenodd;stroke:none"
           d="m -51.868542,698.40532 c -0.799959,0 -1.479923,0.21999 -1.999896,0.63997 -0.539972,0.39998 -0.95995,1.01995 -1.279934,1.81991 -0.319983,0.79996 -0.539972,1.7799 -0.659965,2.93984 -0.139993,1.15994 -0.19999,2.47988 -0.19999,3.9398 0,1.69991 0.08,3.17983 0.239987,4.41977 0.159992,1.23994 0.419979,2.25988 0.77996,3.03984 0.339982,0.79996 0.779959,1.39993 1.299932,1.77991 0.519973,0.35998 1.15994,0.55997 1.879903,0.55997 0.679964,0 1.279933,-0.17999 1.799906,-0.53997 0.519973,-0.33998 0.939951,-0.89995 1.279934,-1.63992 0.339982,-0.75996 0.57997,-1.69991 0.75996,-2.83985 0.159992,-1.15994 0.259987,-2.49987 0.259987,-4.05979 0,-1.75991 -0.1,-3.27983 -0.279986,-4.53976 -0.199989,-1.25994 -0.459976,-2.31988 -0.799958,-3.11984 -0.339982,-0.81996 -0.77996,-1.41993 -1.299933,-1.81991 -0.519973,-0.37998 -1.119941,-0.57997 -1.779907,-0.57997 z m 0.06,-1.65991 c 1.359929,0 2.519869,0.25999 3.479819,0.75996 0.95995,0.51997 1.759909,1.23994 2.359877,2.17989 0.619968,0.93995 1.059945,2.09989 1.339931,3.43982 0.299984,1.35993 0.439977,2.89985 0.439977,4.61976 0,3.7998 -0.679965,6.65965 -2.019895,8.59955 -1.33993,1.9599 -3.299829,2.91985 -5.859696,2.91985 -2.519869,0 -4.399771,-0.91995 -5.639707,-2.75986 -1.239935,-1.8199 -1.839904,-4.61976 -1.839904,-8.33956 0,-1.9599 0.17999,-3.63981 0.559971,-5.05974 0.37998,-1.43992 0.919952,-2.61986 1.619916,-3.55981 0.679964,-0.93996 1.499922,-1.63992 2.439873,-2.0999 0.95995,-0.45997 1.999896,-0.69996 3.119838,-0.69996 z"
           id="path179" />
        <text
           xml:space="preserve"
           style="font-style:normal;font-variant:normal;font-weight:400;font-size:32px;line-height:125%;font-family:Arial;text-align:start;letter-spacing:0px;word-spacing:0px;text-anchor:start;fill:#000000;fill-opacity:1;stroke:none"
           x="-31.549593"
           y="709.22003"
           id="text185"><tspan
             sodipodi:role="line"
             x="-31.549593"
             y="709.22003"
             id="tspan183"><tspan
               dx="0"
               dy="0"
               style="font-style:normal;font-variant:normal;font-weight:400;font-size:32px;font-family:Arial;fill:#000000"
               id="tspan181">–</tspan></tspan></text>
        <text
           xml:space="preserve"
           style="font-style:normal;font-variant:normal;font-weight:400;font-size:32px;line-height:125%;font-family:Roboto;text-align:start;letter-spacing:0px;word-spacing:0px;text-anchor:start;fill:#000000;fill-opacity:1;stroke:none"
           x="-2.5911047"
           y="709.22003"
           id="text191"><tspan
             sodipodi:role="line"
             x="-2.5911047"
             y="709.22003"
             id="tspan189"><tspan
               dx="0"
               dy="0"
               style="font-style:normal;font-variant:normal;font-weight:400;font-size:32px;font-family:Roboto;fill:#000000"
               id="tspan187">начальная интенсивность пучка </tspan></tspan></text>
        <text
           xml:space="preserve"
           style="font-style:normal;font-variant:normal;font-weight:400;font-size:32px;line-height:125%;font-family:Roboto;text-align:start;letter-spacing:0px;word-spacing:0px;text-anchor:start;fill:#000000;fill-opacity:1;stroke:none"
           x="-77.30722"
           y="750.33789"
           id="text197"><tspan
             sodipodi:role="line"
             x="-77.30722"
             y="750.33789"
             id="tspan195"><tspan
               dx="0"
               dy="0"
               style="font-style:normal;font-variant:normal;font-weight:400;font-size:32px;font-family:Roboto;fill:#000000"
               id="tspan193">фотонов.</tspan></tspan></text>
        <path
           style="fill:#000000;fill-opacity:1;fill-rule:evenodd;stroke:none"
           d="m -69.907605,771.88151 h 9.379513 l -0.259987,1.13994 c -0.599969,0.11999 -1.019947,0.25999 -1.279933,0.41998 -0.259987,0.15999 -0.479975,0.39998 -0.679965,0.69996 -0.19999,0.31998 -0.419978,0.79996 -0.639967,1.47992 -0.219988,0.65997 -0.499974,1.73991 -0.819957,3.23984 l -3.999792,18.17905 c -0.19999,0.91995 -0.339983,1.65992 -0.39998,2.19989 -0.06,0.53997 -0.09999,1.01994 -0.09999,1.45992 0,0.69996 0.17999,1.19994 0.519973,1.47992 0.359981,0.29999 0.95995,0.47998 1.779907,0.53998 l -0.259986,1.13994 h -9.379513 l 0.259986,-1.13994 c 0.599969,-0.1 1.039946,-0.23999 1.339931,-0.45998 0.299984,-0.21999 0.539972,-0.49997 0.739961,-0.87995 0.219989,-0.37998 0.399979,-0.83996 0.57997,-1.37993 0.159992,-0.51998 0.419978,-1.57992 0.759961,-3.11984 l 3.979793,-18.03906 c 0.359981,-1.55992 0.519973,-2.81986 0.519973,-3.77981 0,-0.73996 -0.179991,-1.23993 -0.539972,-1.53992 -0.37998,-0.27998 -0.95995,-0.45997 -1.759909,-0.49997 z"
           id="path199" />
        <path
           style="fill:#000000;fill-opacity:1;fill-rule:evenodd;stroke:none"
           d="m -39.309199,770.00161 0.63997,1.7999 c -3.659809,1.19994 -6.359668,3.55982 -8.119577,7.03964 -1.759909,3.49981 -2.639863,7.87959 -2.639863,13.15931 0,5.47972 0.879954,9.97948 2.639863,13.5193 1.759909,3.55982 4.439769,5.93969 8.059577,7.13963 l -0.57997,1.79991 c -4.579758,-1.19994 -8.079576,-3.79981 -10.519449,-7.7796 -2.439873,-3.95979 -3.65981,-8.77954 -3.65981,-14.43925 0,-5.63971 1.239936,-10.45946 3.679809,-14.43925 2.439873,-3.99979 5.939691,-6.59966 10.49945,-7.79959 z"
           id="path201" />
        <path
           style="fill:#000000;fill-opacity:1;fill-rule:evenodd;stroke:none"
           d="m -28.449759,781.06103 c 0.49997,0 0.91995,0.06 1.27993,0.15999 0.37998,0.12 0.69997,0.27999 0.97995,0.49998 0.27999,0.23998 0.51997,0.51997 0.73996,0.87995 0.21999,0.35998 0.43998,0.85996 0.63997,1.47992 0.19999,0.59997 0.39998,1.37993 0.57997,2.27989 0.17999,0.91995 0.33998,1.8799 0.47997,2.85985 h 0.21999 c 1.49993,-2.11989 2.63987,-3.65981 3.41983,-4.63976 0.77995,-0.95995 1.41992,-1.69991 1.95989,-2.17989 0.51998,-0.45997 1.03995,-0.79996 1.53992,-0.99995 0.47998,-0.19999 1.13994,-0.29998 1.9399,-0.29998 0.73996,0 1.33993,0.1 1.81991,0.27998 l -0.93995,4.25978 h -1.63992 c -0.1,-0.65996 -0.37998,-0.99994 -0.81996,-0.99994 -0.13999,0 -0.29998,0.02 -0.45997,0.08 -0.13999,0.04 -0.33998,0.13999 -0.55997,0.29999 -0.23999,0.15999 -0.55997,0.45997 -0.99995,0.91995 -0.43998,0.43997 -0.93995,0.99995 -1.47992,1.65991 -0.53998,0.65997 -1.09995,1.33993 -1.67992,2.05989 l -1.59991,1.9999 c 0.27998,1.49992 0.53997,2.79986 0.79996,3.8798 0.23998,1.09994 0.47997,1.9999 0.65996,2.73986 0.19999,0.71996 0.37998,1.29993 0.51997,1.71991 0.16,0.41998 0.31999,0.73996 0.47998,0.93995 0.17999,0.21999 0.33998,0.35998 0.51997,0.45997 0.17999,0.08 0.39998,0.12 0.63997,0.12 0.41998,0 0.81996,-0.15999 1.21994,-0.49998 0.39997,-0.31998 0.97994,-1.05994 1.71991,-2.21988 l 1.51992,0.99995 c -1.07995,1.63991 -2.07989,2.77985 -2.95985,3.43982 -0.87995,0.65996 -1.9399,0.99995 -3.13984,0.99995 -0.67996,0 -1.25993,-0.12 -1.71991,-0.35998 -0.45997,-0.23999 -0.87995,-0.63997 -1.21993,-1.15994 -0.33999,-0.53998 -0.63997,-1.35993 -0.91996,-2.47987 -0.47997,-1.9999 -0.77995,-3.53982 -0.87995,-4.59977 h -0.23999 c -1.65991,2.31988 -2.87985,3.9998 -3.6998,5.01974 -0.79996,0.99995 -1.45993,1.75991 -1.9799,2.23989 -0.51998,0.47997 -1.03995,0.81995 -1.51992,1.01994 -0.49998,0.19999 -1.15994,0.29999 -1.9599,0.29999 -0.73996,0 -1.33993,-0.1 -1.79991,-0.27999 l 0.93995,-4.23978 h 1.63992 c 0.08,0.63997 0.35998,0.97995 0.81996,0.97995 0.19999,0 0.43997,-0.06 0.67996,-0.17999 0.23999,-0.11999 0.59997,-0.39998 1.03995,-0.83995 0.45997,-0.43998 1.07994,-1.13995 1.8799,-2.0999 0.79996,-0.95995 1.9599,-2.37987 3.45982,-4.27977 -0.21999,-1.23994 -0.45998,-2.43988 -0.71996,-3.57982 -0.23999,-1.13994 -0.49998,-2.19988 -0.77996,-3.17983 -0.25999,-0.97995 -0.47998,-1.61992 -0.63997,-1.9399 -0.17999,-0.29999 -0.35998,-0.49998 -0.55997,-0.61997 -0.19999,-0.11999 -0.43998,-0.17999 -0.73996,-0.17999 -0.31999,0 -0.61997,0.08 -0.87996,0.21999 -0.27998,0.13999 -0.55997,0.39998 -0.87995,0.77996 -0.29999,0.35998 -0.71996,0.93995 -1.23994,1.71991 l -1.51992,-1.01995 c 0.97995,-1.47992 1.9399,-2.57986 2.83985,-3.31983 0.89996,-0.73996 1.9799,-1.09994 3.19984,-1.09994 z"
           id="path203" />
        <path
           style="fill:#000000;fill-opacity:1;fill-rule:evenodd;stroke:none"
           d="m -9.1307594,770.00161 c 4.55976,1.19993 8.05958,3.7998 10.49945,7.79959 2.43987,3.97979 3.67981,8.79954 3.67981,14.43925 0,5.65971 -1.21994,10.47946 -3.65981,14.43925 -2.43987,3.97979 -5.93969,6.57966 -10.51945,7.7796 l -0.55998,-1.79991 c 3.59982,-1.19994 6.27968,-3.57981 8.03959,-7.13963 1.75990996,-3.53982 2.63985996,-8.03958 2.63985996,-13.5193 0,-5.27972 -0.87995,-9.6595 -2.61985996,-13.15931 -1.75991,-3.47982 -4.45977,-5.8397 -8.13958,-7.03964 z"
           id="path205" />
        <text
           xml:space="preserve"
           style="font-style:normal;font-variant:normal;font-weight:400;font-size:32px;line-height:125%;font-family:Arial;text-align:start;letter-spacing:0px;word-spacing:0px;text-anchor:start;fill:#000000;fill-opacity:1;stroke:none"
           x="17.407858"
           y="803.93512"
           id="text211"><tspan
             sodipodi:role="line"
             x="17.407858"
             y="803.93512"
             id="tspan209"><tspan
               dx="0"
               dy="0"
               style="font-style:normal;font-variant:normal;font-weight:400;font-size:32px;font-family:Arial;fill:#000000"
               id="tspan207">–</tspan></tspan></text>
        <text
           xml:space="preserve"
           style="font-style:normal;font-variant:normal;font-weight:400;font-size:32px;line-height:125%;font-family:Roboto;text-align:start;letter-spacing:0px;word-spacing:0px;text-anchor:start;fill:#000000;fill-opacity:1;stroke:none"
           x="46.366352"
           y="803.93512"
           id="text217"><tspan
             sodipodi:role="line"
             x="46.366352"
             y="803.93512"
             id="tspan215"><tspan
               dx="0"
               dy="0"
               style="font-style:normal;font-variant:normal;font-weight:400;font-size:32px;font-family:Roboto;fill:#000000"
               id="tspan213">интенсивность пучка на </tspan></tspan></text>
        <text
           xml:space="preserve"
           style="font-style:normal;font-variant:normal;font-weight:400;font-size:32px;line-height:125%;font-family:Roboto;text-align:start;letter-spacing:0px;word-spacing:0px;text-anchor:start;fill:#000000;fill-opacity:1;stroke:none"
           x="-77.30722"
           y="844.89301"
           id="text223"><tspan
             sodipodi:role="line"
             x="-77.30722"
             y="844.89301"
             id="tspan221"><tspan
               dx="0"
               dy="0"
               style="font-style:normal;font-variant:normal;font-weight:400;font-size:32px;font-family:Roboto;fill:#000000"
               id="tspan219">расстоянии </tspan></tspan></text>
        <path
           style="fill:#000000;fill-opacity:1;fill-rule:evenodd;stroke:none"
           d="m 112.46293,829.61851 c 0.31998,0 0.59997,0.04 0.85995,0.11999 0.23999,0.06 0.45998,0.17999 0.63997,0.31999 0.17999,0.15999 0.35998,0.35998 0.49998,0.59997 0.13999,0.23998 0.27998,0.55997 0.41997,0.95995 0.14,0.41997 0.25999,0.93995 0.37998,1.53992 0.12,0.59996 0.23999,1.23993 0.31999,1.8999 h 0.15999 c 0.99995,-1.39993 1.75991,-2.43988 2.27988,-3.07984 0.51997,-0.65997 0.93995,-1.13994 1.29993,-1.45993 0.35998,-0.31998 0.69997,-0.53997 1.01995,-0.67996 0.33998,-0.12 0.75996,-0.17999 1.29993,-0.17999 0.49998,0 0.89996,0.06 1.21994,0.17999 l -0.63997,2.81985 h -1.07994 c -0.06,-0.41998 -0.25999,-0.63997 -0.55997,-0.63997 -0.08,0 -0.17999,0 -0.29999,0.04 -0.1,0.04 -0.21999,0.1 -0.37998,0.19999 -0.13999,0.1 -0.35998,0.29999 -0.65996,0.61997 -0.27999,0.29998 -0.61997,0.65997 -0.97995,1.09994 -0.35998,0.43998 -0.73996,0.89996 -1.11994,1.37993 l -1.05995,1.31993 c 0.17999,0.99995 0.35998,1.85991 0.51997,2.59987 0.16,0.71996 0.31999,1.33993 0.43998,1.8199 0.13999,0.47998 0.25999,0.85996 0.35998,1.13994 0.08,0.27999 0.19999,0.49998 0.31999,0.63997 0.1,0.13999 0.21999,0.23999 0.33998,0.29998 0.11999,0.06 0.25999,0.08 0.41998,0.08 0.27998,0 0.55997,-0.1 0.81995,-0.31998 0.25999,-0.21999 0.63997,-0.71997 1.13995,-1.49992 l 1.01994,0.67996 c -0.71996,1.07994 -1.37993,1.8399 -1.97989,2.29988 -0.57997,0.43998 -1.27994,0.65997 -2.0999,0.65997 -0.43997,0 -0.81995,-0.08 -1.13994,-0.23999 -0.29998,-0.15999 -0.57997,-0.41998 -0.79996,-0.77996 -0.23998,-0.35998 -0.43997,-0.89995 -0.61996,-1.65991 -0.31999,-1.33993 -0.51998,-2.35988 -0.59997,-3.05985 h -0.13999 c -1.11995,1.55992 -1.9399,2.65987 -2.47988,3.33983 -0.51997,0.67997 -0.95995,1.17994 -1.31993,1.49992 -0.33998,0.31999 -0.67996,0.55997 -1.01994,0.67997 -0.31999,0.13999 -0.75996,0.19999 -1.29994,0.19999 -0.47997,0 -0.87995,-0.06 -1.19993,-0.17999 l 0.61996,-2.83986 h 1.09995 c 0.06,0.43998 0.23998,0.65997 0.53997,0.65997 0.13999,0 0.29998,-0.04 0.45997,-0.11999 0.16,-0.08 0.39998,-0.25999 0.69997,-0.55997 0.29998,-0.29999 0.71996,-0.75997 1.25993,-1.39993 0.51998,-0.63997 1.29994,-1.57992 2.29988,-2.85985 -0.15999,-0.81996 -0.31998,-1.61992 -0.47997,-2.37988 -0.15999,-0.75996 -0.33998,-1.45992 -0.51997,-2.11989 -0.18,-0.65997 -0.31999,-1.07994 -0.43998,-1.27993 -0.1,-0.21999 -0.23999,-0.35998 -0.35998,-0.41998 -0.14,-0.08 -0.29999,-0.12 -0.49998,-0.12 -0.21999,0 -0.41998,0.04 -0.57997,0.14 -0.17999,0.1 -0.37998,0.27998 -0.57997,0.51997 -0.21999,0.23999 -0.49997,0.61997 -0.83995,1.13994 l -0.99995,-0.65996 c 0.63997,-0.99995 1.27993,-1.73991 1.8799,-2.21989 0.59997,-0.49997 1.31993,-0.73996 2.13989,-0.73996 z"
           id="path225" />
        <text
           xml:space="preserve"
           style="font-style:normal;font-variant:normal;font-weight:400;font-size:32px;line-height:125%;font-family:Arial;text-align:start;letter-spacing:0px;word-spacing:0px;text-anchor:start;fill:#000000;fill-opacity:1;stroke:none"
           x="124.28233"
           y="844.89301"
           id="text231"><tspan
             sodipodi:role="line"
             x="124.28233"
             y="844.89301"
             id="tspan229"><tspan
               dx="0"
               dy="0"
               style="font-style:normal;font-variant:normal;font-weight:400;font-size:32px;font-family:Arial;fill:#000000"
               id="tspan227">.</tspan></tspan></text>
        <g
           id="g1657"
           transform="translate(20)">
          <g
             id="g831"
             transform="matrix(2.9368695,0,0,2.9368695,431.97244,210.73515)">
            <path
               style="fill:none;stroke:#000000;stroke-width:0.965;stroke-linecap:butt;stroke-linejoin:miter;stroke-dasharray:none;stroke-opacity:1;marker-end:url(#TriangleStart)"
               d="M 33.592815,207.34108 V 83.648335"
               id="path14187" />
            <path
               style="fill:none;stroke:#000000;stroke-width:0.965;stroke-linecap:butt;stroke-linejoin:miter;stroke-dasharray:none;stroke-opacity:1;marker-start:url(#Dot);marker-end:url(#TriangleStart)"
               d="M 33.592815,207.34108 H 157.28556"
               id="path14189" />
            <path
               style="fill:none;stroke:#ff0000;stroke-width:1.265;stroke-linecap:butt;stroke-linejoin:miter;stroke-dasharray:none;stroke-opacity:1;marker-start:url(#marker16264)"
               d="m 33.592815,122.13547 c 0,0 27.141214,78.97648 109.677205,78.97648"
               id="path15510" />
            <g
               id="g18296"
               transform="translate(-20.689615,36.184393)">
              <g
                 fill="#000000"
                 fill-opacity="1"
                 id="id-f3599a8d-2ee4-4cb3-8676-65f6b6de8487"
                 transform="matrix(2.1372465,0,0,2.1372465,-237.90769,-183.9227)">
                <g
                   transform="translate(148.712,134.765)"
                   id="g17954">
                  <path
                     d="M 3.734375,-6.046875 C 3.8125,-6.40625 3.84375,-6.5 4.640625,-6.5 c 0.234375,0 0.3125,0 0.3125,-0.1875 0,-0.125 -0.109375,-0.125 -0.140625,-0.125 -0.296875,0 -1.03125,0.03125 -1.328125,0.03125 -0.296875,0 -1.015625,-0.03125 -1.328125,-0.03125 -0.0625,0 -0.1875,0 -0.1875,0.203125 C 1.96875,-6.5 2.046875,-6.5 2.25,-6.5 c 0.40625,0 0.6875,0 0.6875,0.1875 0,0.046875 0,0.078125 -0.03125,0.15625 l -1.34375,5.375 c -0.09375,0.375 -0.109375,0.46875 -0.90625,0.46875 -0.234375,0 -0.3125,0 -0.3125,0.203125 C 0.34375,0 0.453125,0 0.484375,0 0.78125,0 1.5,-0.03125 1.796875,-0.03125 2.09375,-0.03125 2.828125,0 3.125,0 c 0.078125,0 0.203125,0 0.203125,-0.1875 0,-0.125 -0.078125,-0.125 -0.296875,-0.125 -0.1875,0 -0.234375,0 -0.421875,-0.015625 -0.21875,-0.015625 -0.25,-0.0625 -0.25,-0.171875 0,-0.078125 0.015625,-0.15625 0.03125,-0.234375 z m 0,0"
                     id="id-801ec34f-2517-4089-8b53-3daa80908743" />
                </g>
              </g>
              <g
                 fill="#000000"
                 fill-opacity="1"
                 id="id-c5139fc9-cf04-4675-8711-7ff86039df23"
                 transform="matrix(2.1372465,0,0,2.1372465,-237.90769,-183.9227)">
                <g
                   transform="translate(156.641,134.765)"
                   id="g17958">
                  <path
                     d="m 6.84375,-3.265625 c 0.15625,0 0.34375,0 0.34375,-0.1875 C 7.1875,-3.65625 7,-3.65625 6.859375,-3.65625 h -5.96875 c -0.140625,0 -0.328125,0 -0.328125,0.203125 0,0.1875 0.1875,0.1875 0.328125,0.1875 z m 0.015625,1.9375 c 0.140625,0 0.328125,0 0.328125,-0.203125 0,-0.1875 -0.1875,-0.1875 -0.34375,-0.1875 H 0.890625 c -0.140625,0 -0.328125,0 -0.328125,0.1875 0,0.203125 0.1875,0.203125 0.328125,0.203125 z m 0,0"
                     id="id-364fb22f-6bae-42a2-a5e9-a98c8db34891" />
                </g>
              </g>
              <g
                 fill="#000000"
                 fill-opacity="1"
                 id="id-59c32d38-0f0f-4e64-9184-dce82ef44945"
                 transform="matrix(2.1372465,0,0,2.1372465,-237.90769,-183.9227)">
                <g
                   transform="translate(167.157,134.765)"
                   id="g17962">
                  <path
                     d="M 3.734375,-6.046875 C 3.8125,-6.40625 3.84375,-6.5 4.640625,-6.5 c 0.234375,0 0.3125,0 0.3125,-0.1875 0,-0.125 -0.109375,-0.125 -0.140625,-0.125 -0.296875,0 -1.03125,0.03125 -1.328125,0.03125 -0.296875,0 -1.015625,-0.03125 -1.328125,-0.03125 -0.0625,0 -0.1875,0 -0.1875,0.203125 C 1.96875,-6.5 2.046875,-6.5 2.25,-6.5 c 0.40625,0 0.6875,0 0.6875,0.1875 0,0.046875 0,0.078125 -0.03125,0.15625 l -1.34375,5.375 c -0.09375,0.375 -0.109375,0.46875 -0.90625,0.46875 -0.234375,0 -0.3125,0 -0.3125,0.203125 C 0.34375,0 0.453125,0 0.484375,0 0.78125,0 1.5,-0.03125 1.796875,-0.03125 2.09375,-0.03125 2.828125,0 3.125,0 c 0.078125,0 0.203125,0 0.203125,-0.1875 0,-0.125 -0.078125,-0.125 -0.296875,-0.125 -0.1875,0 -0.234375,0 -0.421875,-0.015625 -0.21875,-0.015625 -0.25,-0.0625 -0.25,-0.171875 0,-0.078125 0.015625,-0.15625 0.03125,-0.234375 z m 0,0"
                     id="id-7c9f67bb-88fa-426f-a3ca-028b5fb2d5dc" />
                </g>
              </g>
              <g
                 fill="#000000"
                 fill-opacity="1"
                 id="id-83f7e7ee-9add-4752-962d-bee10f6b5d30"
                 transform="matrix(2.1372465,0,0,2.1372465,-237.90769,-183.9227)">
                <g
                   transform="translate(171.536,136.259)"
                   id="g17966">
                  <path
                     d="M 3.59375,-2.21875 C 3.59375,-2.984375 3.5,-3.546875 3.1875,-4.03125 2.96875,-4.34375 2.53125,-4.625 1.984375,-4.625 c -1.625,0 -1.625,1.90625 -1.625,2.40625 0,0.5 0,2.359375 1.625,2.359375 1.609375,0 1.609375,-1.859375 1.609375,-2.359375 z M 1.984375,-0.0625 c -0.328125,0 -0.75,-0.1875 -0.890625,-0.75 C 1,-1.21875 1,-1.796875 1,-2.3125 1,-2.828125 1,-3.359375 1.09375,-3.734375 1.25,-4.28125 1.6875,-4.4375 1.984375,-4.4375 c 0.375,0 0.734375,0.234375 0.859375,0.640625 0.109375,0.375 0.125,0.875 0.125,1.484375 0,0.515625 0,1.03125 -0.09375,1.46875 -0.140625,0.640625 -0.609375,0.78125 -0.890625,0.78125 z m 0,0"
                     id="id-e8c2b840-84f1-4e52-8aa8-9b07685eeec7" />
                </g>
              </g>
              <g
                 fill="#000000"
                 fill-opacity="1"
                 id="id-94c2db5b-ff82-4f4a-8164-bf1dd38cc9ac"
                 transform="matrix(2.1372465,0,0,2.1372465,-237.90769,-183.9227)">
                <g
                   transform="translate(176.006,134.765)"
                   id="g17970">
                  <path
                     d="m 1.859375,-2.296875 c 0.296875,0 1.03125,-0.03125 1.53125,-0.234375 0.703125,-0.296875 0.75,-0.890625 0.75,-1.03125 0,-0.4375 -0.375,-0.84375 -1.0625,-0.84375 -1.109375,0 -2.625,0.96875 -2.625,2.71875 0,1.015625 0.59375,1.796875 1.578125,1.796875 1.421875,0 2.25,-1.0625 2.25,-1.171875 0,-0.0625 -0.046875,-0.140625 -0.109375,-0.140625 -0.0625,0 -0.078125,0.03125 -0.140625,0.109375 -0.78125,0.984375 -1.875,0.984375 -1.984375,0.984375 -0.78125,0 -0.875,-0.84375 -0.875,-1.15625 0,-0.125 0.015625,-0.421875 0.15625,-1.03125 z m -0.46875,-0.21875 C 1.78125,-4.03125 2.8125,-4.1875 3.078125,-4.1875 c 0.453125,0 0.734375,0.296875 0.734375,0.625 0,1.046875 -1.59375,1.046875 -2.015625,1.046875 z m 0,0"
                     id="id-9d7b7115-5f9a-4058-b913-2e6fb013c719" />
                </g>
              </g>
              <g
                 fill="#000000"
                 fill-opacity="1"
                 id="id-df7b4fd4-00aa-4ad1-b8bf-19560db3d490"
                 transform="matrix(2.1372465,0,0,2.1372465,-237.90769,-183.9227)">
                <g
                   transform="translate(180.645,131.149)"
                   id="g17974">
                  <path
                     d="m 5.1875,-1.578125 c 0.109375,0 0.28125,0 0.28125,-0.15625 0,-0.1875 -0.171875,-0.1875 -0.28125,-0.1875 H 1.03125 c -0.109375,0 -0.28125,0 -0.28125,0.171875 0,0.171875 0.15625,0.171875 0.28125,0.171875 z m 0,0"
                     id="id-db534237-e099-4a61-ace8-4a20fc70620e" />
                </g>
              </g>
              <g
                 transform="matrix(2.1372465,0,0,2.1372465,161.4817,96.375041)"
                 id="g17978"
                 style="fill:#000000;fill-opacity:1">
                <path
                   d="M 0.375,1.125 C 0.34375,1.21875 0.34375,1.265625 0.34375,1.265625 c 0,0.15625 0.125,0.21875 0.234375,0.21875 0.265625,0 0.3125,-0.21875 0.34375,-0.34375 0.015625,-0.03125 0.15625,-0.59375 0.3125,-1.265625 0.21875,0.140625 0.5,0.1875 0.75,0.1875 0.59375,0 0.984375,-0.484375 1,-0.5 0.140625,0.484375 0.625,0.5 0.71875,0.5 0.25,0 0.421875,-0.140625 0.5625,-0.359375 C 4.40625,-0.578125 4.5,-0.96875 4.5,-1 c 0,-0.09375 -0.09375,-0.09375 -0.109375,-0.09375 -0.09375,0 -0.109375,0.03125 -0.15625,0.21875 -0.078125,0.34375 -0.21875,0.75 -0.5,0.75 C 3.546875,-0.125 3.5,-0.28125 3.5,-0.46875 c 0,-0.109375 0.046875,-0.375 0.109375,-0.546875 0.046875,-0.1875 0.109375,-0.46875 0.140625,-0.625 l 0.171875,-0.625 C 3.953125,-2.4375 4.03125,-2.75 4.03125,-2.78125 4.03125,-2.921875 3.921875,-3 3.8125,-3 3.734375,-3 3.59375,-2.96875 3.515625,-2.84375 3.5,-2.796875 3.4375,-2.578125 3.40625,-2.4375 l -0.140625,0.578125 -0.21875,0.875 C 3,-0.8125 3,-0.796875 2.9375,-0.703125 2.71875,-0.390625 2.40625,-0.125 2.015625,-0.125 1.4375,-0.125 1.4375,-0.625 1.4375,-0.75 c 0,-0.171875 0.03125,-0.265625 0.125,-0.640625 0.0625,-0.3125 0.078125,-0.359375 0.15625,-0.625 L 1.8125,-2.40625 c 0.03125,-0.15625 0.109375,-0.421875 0.109375,-0.4375 0,-0.125 -0.109375,-0.234375 -0.25,-0.234375 -0.25,0 -0.3125,0.25 -0.328125,0.328125 z m 0,0"
                   id="id-ec630f45-5783-4270-b778-47510c1c3019" />
              </g>
              <g
                 transform="matrix(2.1372465,0,0,2.1372465,171.83452,96.375041)"
                 id="g17981"
                 style="fill:#000000;fill-opacity:1">
                <path
                   d="M 1.734375,-0.734375 C 1.671875,-0.5 1.4375,-0.125 1.078125,-0.125 c -0.015625,0 -0.234375,0 -0.375,-0.09375 0.28125,-0.09375 0.3125,-0.34375 0.3125,-0.390625 0,-0.15625 -0.125,-0.25 -0.28125,-0.25 -0.203125,0 -0.40625,0.15625 -0.40625,0.421875 0,0.34375 0.390625,0.5 0.734375,0.5 0.328125,0 0.609375,-0.1875 0.78125,-0.484375 C 2.015625,-0.0625 2.390625,0.0625 2.671875,0.0625 c 0.8125,0 1.234375,-0.859375 1.234375,-1.0625 0,-0.09375 -0.09375,-0.09375 -0.109375,-0.09375 -0.109375,0 -0.109375,0.046875 -0.140625,0.125 -0.140625,0.484375 -0.5625,0.84375 -0.953125,0.84375 -0.28125,0 -0.421875,-0.1875 -0.421875,-0.453125 0,-0.1875 0.171875,-0.8125 0.359375,-1.59375 C 2.78125,-2.703125 3.09375,-2.875 3.328125,-2.875 c 0.015625,0 0.21875,0 0.375,0.09375 -0.21875,0.0625 -0.3125,0.265625 -0.3125,0.390625 0,0.140625 0.125,0.25 0.28125,0.25 0.15625,0 0.390625,-0.125 0.390625,-0.421875 0,-0.390625 -0.453125,-0.515625 -0.71875,-0.515625 -0.359375,0 -0.640625,0.234375 -0.78125,0.5 -0.125,-0.28125 -0.453125,-0.5 -0.84375,-0.5 C 0.9375,-3.078125 0.5,-2.21875 0.5,-2 c 0,0.078125 0.09375,0.078125 0.109375,0.078125 0.09375,0 0.09375,-0.015625 0.140625,-0.109375 C 0.921875,-2.578125 1.359375,-2.875 1.703125,-2.875 1.9375,-2.875 2.125,-2.75 2.125,-2.421875 2.125,-2.28125 2.03125,-1.9375 1.96875,-1.6875 Z m 0,0"
                   id="id-4ae3340a-19e9-4a4f-8f14-6ef96ad55c6e" />
              </g>
            </g>
            <g
               id="g18166"
               transform="translate(-91.212281,14.23273)"
               style="fill:#ff0000;fill-opacity:1">
              <g
                 fill="#000000"
                 fill-opacity="1"
                 id="id-b3f283c2-008d-4d48-add8-2fedc675c62c"
                 transform="matrix(2.1372465,0,0,2.1372465,-217.66301,-203.72244)"
                 style="fill:#ff0000;fill-opacity:1">
                <g
                   transform="translate(148.712,146.72)"
                   id="g17985"
                   style="fill:#ff0000;fill-opacity:1">
                  <path
                     d="M 3.734375,-6.046875 C 3.8125,-6.40625 3.84375,-6.5 4.640625,-6.5 c 0.234375,0 0.3125,0 0.3125,-0.1875 0,-0.125 -0.109375,-0.125 -0.140625,-0.125 -0.296875,0 -1.03125,0.03125 -1.328125,0.03125 -0.296875,0 -1.015625,-0.03125 -1.328125,-0.03125 -0.0625,0 -0.1875,0 -0.1875,0.203125 C 1.96875,-6.5 2.046875,-6.5 2.25,-6.5 c 0.40625,0 0.6875,0 0.6875,0.1875 0,0.046875 0,0.078125 -0.03125,0.15625 l -1.34375,5.375 c -0.09375,0.375 -0.109375,0.46875 -0.90625,0.46875 -0.234375,0 -0.3125,0 -0.3125,0.203125 C 0.34375,0 0.453125,0 0.484375,0 0.78125,0 1.5,-0.03125 1.796875,-0.03125 2.09375,-0.03125 2.828125,0 3.125,0 c 0.078125,0 0.203125,0 0.203125,-0.1875 0,-0.125 -0.078125,-0.125 -0.296875,-0.125 -0.1875,0 -0.234375,0 -0.421875,-0.015625 -0.21875,-0.015625 -0.25,-0.0625 -0.25,-0.171875 0,-0.078125 0.015625,-0.15625 0.03125,-0.234375 z m 0,0"
                     id="id-2b41b20e-8a51-4d42-aaf6-becb5a5c1ccd"
                     style="fill:#ff0000;fill-opacity:1" />
                </g>
              </g>
              <g
                 fill="#000000"
                 fill-opacity="1"
                 id="id-dfd09846-c517-4602-894e-5eb6e4ba7437"
                 transform="matrix(2.1372465,0,0,2.1372465,-217.66301,-203.72244)"
                 style="fill:#ff0000;fill-opacity:1">
                <g
                   transform="translate(153.092,148.214)"
                   id="g17989"
                   style="fill:#ff0000;fill-opacity:1">
                  <path
                     d="M 3.59375,-2.21875 C 3.59375,-2.984375 3.5,-3.546875 3.1875,-4.03125 2.96875,-4.34375 2.53125,-4.625 1.984375,-4.625 c -1.625,0 -1.625,1.90625 -1.625,2.40625 0,0.5 0,2.359375 1.625,2.359375 1.609375,0 1.609375,-1.859375 1.609375,-2.359375 z M 1.984375,-0.0625 c -0.328125,0 -0.75,-0.1875 -0.890625,-0.75 C 1,-1.21875 1,-1.796875 1,-2.3125 1,-2.828125 1,-3.359375 1.09375,-3.734375 1.25,-4.28125 1.6875,-4.4375 1.984375,-4.4375 c 0.375,0 0.734375,0.234375 0.859375,0.640625 0.109375,0.375 0.125,0.875 0.125,1.484375 0,0.515625 0,1.03125 -0.09375,1.46875 -0.140625,0.640625 -0.609375,0.78125 -0.890625,0.78125 z m 0,0"
                     id="id-2cf36425-f14b-40e0-8763-5ada82f808a3"
                     style="fill:#ff0000;fill-opacity:1" />
                </g>
              </g>
            </g>
            <g
               fill="#000000"
               fill-opacity="1"
               id="g18264"
               transform="matrix(2.1372465,0,0,2.1372465,-300.95011,-208.39429)">
              <g
                 transform="translate(148.712,134.765)"
                 id="g18262">
                <path
                   d="M 3.734375,-6.046875 C 3.8125,-6.40625 3.84375,-6.5 4.640625,-6.5 c 0.234375,0 0.3125,0 0.3125,-0.1875 0,-0.125 -0.109375,-0.125 -0.140625,-0.125 -0.296875,0 -1.03125,0.03125 -1.328125,0.03125 -0.296875,0 -1.015625,-0.03125 -1.328125,-0.03125 -0.0625,0 -0.1875,0 -0.1875,0.203125 C 1.96875,-6.5 2.046875,-6.5 2.25,-6.5 c 0.40625,0 0.6875,0 0.6875,0.1875 0,0.046875 0,0.078125 -0.03125,0.15625 l -1.34375,5.375 c -0.09375,0.375 -0.109375,0.46875 -0.90625,0.46875 -0.234375,0 -0.3125,0 -0.3125,0.203125 C 0.34375,0 0.453125,0 0.484375,0 0.78125,0 1.5,-0.03125 1.796875,-0.03125 2.09375,-0.03125 2.828125,0 3.125,0 c 0.078125,0 0.203125,0 0.203125,-0.1875 0,-0.125 -0.078125,-0.125 -0.296875,-0.125 -0.1875,0 -0.234375,0 -0.421875,-0.015625 -0.21875,-0.015625 -0.25,-0.0625 -0.25,-0.171875 0,-0.078125 0.015625,-0.15625 0.03125,-0.234375 z m 0,0"
                   id="path18260" />
              </g>
            </g>
            <g
               transform="matrix(3.128949,0,0,3.128949,151.50607,224.56654)"
               id="g18272"
               style="fill:#000000;fill-opacity:1">
              <path
                 d="M 1.734375,-0.734375 C 1.671875,-0.5 1.4375,-0.125 1.078125,-0.125 c -0.015625,0 -0.234375,0 -0.375,-0.09375 0.28125,-0.09375 0.3125,-0.34375 0.3125,-0.390625 0,-0.15625 -0.125,-0.25 -0.28125,-0.25 -0.203125,0 -0.40625,0.15625 -0.40625,0.421875 0,0.34375 0.390625,0.5 0.734375,0.5 0.328125,0 0.609375,-0.1875 0.78125,-0.484375 C 2.015625,-0.0625 2.390625,0.0625 2.671875,0.0625 c 0.8125,0 1.234375,-0.859375 1.234375,-1.0625 0,-0.09375 -0.09375,-0.09375 -0.109375,-0.09375 -0.109375,0 -0.109375,0.046875 -0.140625,0.125 -0.140625,0.484375 -0.5625,0.84375 -0.953125,0.84375 -0.28125,0 -0.421875,-0.1875 -0.421875,-0.453125 0,-0.1875 0.171875,-0.8125 0.359375,-1.59375 C 2.78125,-2.703125 3.09375,-2.875 3.328125,-2.875 c 0.015625,0 0.21875,0 0.375,0.09375 -0.21875,0.0625 -0.3125,0.265625 -0.3125,0.390625 0,0.140625 0.125,0.25 0.28125,0.25 0.15625,0 0.390625,-0.125 0.390625,-0.421875 0,-0.390625 -0.453125,-0.515625 -0.71875,-0.515625 -0.359375,0 -0.640625,0.234375 -0.78125,0.5 -0.125,-0.28125 -0.453125,-0.5 -0.84375,-0.5 C 0.9375,-3.078125 0.5,-2.21875 0.5,-2 c 0,0.078125 0.09375,0.078125 0.109375,0.078125 0.09375,0 0.09375,-0.015625 0.140625,-0.109375 C 0.921875,-2.578125 1.359375,-2.875 1.703125,-2.875 1.9375,-2.875 2.125,-2.75 2.125,-2.421875 2.125,-2.28125 2.03125,-1.9375 1.96875,-1.6875 Z m 0,0"
                 id="path18270" />
            </g>
          </g>
          <text
             xml:space="preserve"
             style="font-style:normal;font-variant:normal;font-weight:400;font-size:24px;line-height:125%;font-family:Roboto;text-align:start;letter-spacing:0px;word-spacing:0px;text-anchor:start;fill:#000000;fill-opacity:1;stroke:none"
             x="511.21075"
             y="905.45929"
             id="text253"><tspan
               sodipodi:role="line"
               x="511.21075"
               y="905.45929"
               id="tspan251"><tspan
                 style="font-style:normal;font-variant:normal;font-weight:400;font-size:24px;font-family:Roboto;fill:#000000"
                 id="tspan249">Интенсивность пучка фотонов.</tspan></tspan></text>
        </g>
      </g>
    </g>
  </g>
</svg>
